<svg height="511pt" viewBox="1 -23 511.99878 511" width="511pt" xmlns="http://www.w3.org/2000/svg"><path d="m58.894531 143.660156c2.472657-1.414062 3.730469-4.230468 3.1875-7.027344-.890625-4.609374-1.359375-9.371093-1.359375-14.238281 0-41.257812 33.445313-74.703125 74.703125-74.703125h.171875c2.722656.007813 5.144532-1.589844 6.21875-4.089844 9.015625-20.878906 29.640625-35.570312 53.75-35.90625 33.15625-.457031 61.289063 27.445313 61.289063 60.601563v328.6875c0 33.15625-28.132813 61.058594-61.289063 60.601563-24.109375-.335938-44.734375-15.027344-53.75-35.910157-1.074218-2.496093-3.5-4.09375-6.21875-4.085937-.058594 0-.117187 0-.171875 0-41.257812 0-74.703125-33.445313-74.703125-74.703125 0-4.871094.46875-9.628907 1.359375-14.238281.542969-2.792969-.71875-5.609376-3.1875-7.027344-30.847656-17.664063-51.644531-50.886719-51.644531-88.980469 0-38.097656 20.796875-71.316406 51.644531-88.980469zm0 0" fill="#60b8ff"/><path d="m171.957031 421.675781c-1.074219-2.496093-3.5-4.09375-6.21875-4.085937-.058593 0-.117187 0-.171875 0-41.257812 0-74.703125-33.445313-74.703125-74.703125 0-4.871094.46875-9.628907 1.359375-14.238281.542969-2.792969-.71875-5.609376-3.1875-7.027344-30.847656-17.664063-51.644531-50.886719-51.644531-88.980469s20.796875-71.3125 51.644531-88.980469c2.46875-1.414062 3.730469-4.230468 3.1875-7.027344-.890625-4.609374-1.359375-9.367187-1.359375-14.238281 0-41.257812 33.445313-74.703125 74.703125-74.703125h.171875c2.71875.007813 5.140625-1.589844 6.21875-4.085937 7.160157-16.585938 21.648438-29.257813 39.386719-33.941407-5.058594-1.34375-10.347656-2.042968-15.777344-1.964843-24.109375.332031-44.734375 15.023437-53.75 35.90625-1.074218 2.496093-3.5 4.09375-6.21875 4.085937-.058594 0-.113281 0-.171875 0-41.257812 0-74.703125 33.445313-74.703125 74.703125 0 4.871094.46875 9.628907 1.359375 14.238281.542969 2.796876-.714843 5.613282-3.1875 7.027344-30.847656 17.667969-51.644531 50.886719-51.644531 88.980469s20.796875 71.316406 51.644531 88.980469c2.472657 1.414062 3.730469 4.234375 3.1875 7.027344-.890625 4.609374-1.359375 9.371093-1.359375 14.238281 0 41.257812 33.445313 74.703125 74.703125 74.703125h.171875c2.722656-.007813 5.144532 1.589844 6.222656 4.085937 9.011719 20.882813 29.640626 35.574219 53.75 35.910157 5.425782.074218 10.714844-.625 15.773438-1.96875-17.738281-4.683594-32.226562-17.355469-39.386719-33.941407zm0 0" fill="#22a7ff"/><path d="m452.8125 143.660156c-2.472656-1.414062-3.730469-4.230468-3.1875-7.027344.890625-4.609374 1.359375-9.371093 1.359375-14.238281 0-41.257812-33.445313-74.703125-74.703125-74.703125-.058594 0-.113281 0-.171875 0-2.722656.007813-5.144531-1.589844-6.21875-4.089844-9.015625-20.878906-29.640625-35.570312-53.75-35.90625-33.15625-.457031-60.285156 27.445313-60.285156 60.601563v328.6875c0 33.15625 27.128906 61.058594 60.285156 60.601563 24.109375-.335938 44.734375-15.027344 53.75-35.910157 1.074219-2.496093 3.5-4.09375 6.21875-4.085937h.171875c41.257812 0 74.703125-33.445313 74.703125-74.703125 0-4.871094-.46875-9.628907-1.359375-14.238281-.542969-2.792969.71875-5.609376 3.1875-7.027344 30.847656-17.664063 51.644531-50.886719 51.644531-88.980469 0-38.097656-20.796875-71.316406-51.644531-88.980469zm0 0" fill="#ff646f"/><path d="m285.992188 396.984375c0-3.152344 0-325.515625 0-328.6875 0-27.714844 18.960937-51.746094 44.550781-58.621094-4.609375-1.222656-9.429688-1.910156-14.402344-1.980469-33.15625-.457031-60.285156 27.445313-60.285156 60.601563v328.6875c0 33.15625 27.128906 61.058594 60.285156 60.601563 4.972656-.070313 9.796875-.757813 14.402344-1.980469-25.585938-6.875-44.550781-30.90625-44.550781-58.621094zm0 0" fill="#ff4755"/><path d="m253.742188 96.332031c-46.96875 1.109375-84.957032 39.960938-85.070313 86.941407-.078125 31.300781 16.355469 58.753906 41.066406 74.1875 3.949219 2.464843 6.382813 6.753906 6.382813 11.410156v12.664062c0 7.40625 6.003906 13.40625 13.40625 13.40625h52.652344c7.40625 0 13.40625-6.003906 13.40625-13.40625v-12.664062c0-4.664063 2.449218-8.953125 6.40625-11.425782 24.644531-15.398437 41.042968-42.753906 41.042968-73.957031 0-48.851562-40.175781-88.316406-89.292968-87.15625zm0 0" fill="#ffe55a"/><path d="m245.167969 281.535156v-12.664062c0-4.65625-2.433594-8.945313-6.382813-11.410156-24.710937-15.433594-41.144531-42.886719-41.066406-74.1875.101562-42.777344 31.613281-78.804688 72.707031-85.746094-5.40625-.910156-10.984375-1.332032-16.683593-1.195313-46.96875 1.109375-84.957032 39.960938-85.070313 86.941407-.078125 31.300781 16.355469 58.753906 41.066406 74.191406 3.949219 2.464844 6.382813 6.75 6.382813 11.40625v12.667968c0 7.402344 6.003906 13.402344 13.40625 13.402344h29.042968c-7.402343 0-13.402343-6-13.402343-13.40625zm0 0" fill="#ffd500"/><path d="m233.78125 350.347656v14.710938c0 7.601562 6.222656 13.820312 13.820312 13.820312h16.503907c7.601562 0 13.820312-6.21875 13.820312-13.820312v-14.710938zm0 0" fill="#4f66d1"/><path d="m262.828125 365.058594v-14.710938h-29.046875v14.710938c0 7.601562 6.222656 13.820312 13.820312 13.820312h16.503907c2.253906 0 4.382812-.558594 6.269531-1.527344-4.464844-2.296874-7.546875-6.949218-7.546875-12.292968zm0 0" fill="#314dca"/><path d="m278.3125 322.644531h-44.914062c-7.601563 0-13.820313 6.21875-13.820313 13.820313v2.0625c0 7.601562 6.21875 13.820312 13.820313 13.820312h44.914062c7.597656 0 13.816406-6.21875 13.816406-13.820312v-2.0625c0-7.601563-6.21875-13.820313-13.816406-13.820313zm0 0" fill="#d9edff"/><path d="m278.3125 334.078125h-44.914062c-4.578126 0-8.640626-2.265625-11.160157-5.71875-1.664062 2.285156-2.660156 5.078125-2.660156 8.105469v2.0625c0 7.601562 6.21875 13.820312 13.820313 13.820312h44.914062c7.597656 0 13.816406-6.21875 13.816406-13.820312v-2.0625c0-3.027344-.996094-5.820313-2.660156-8.105469-2.515625 3.453125-6.582031 5.71875-11.15625 5.71875zm0 0" fill="#b4dbff"/><path d="m278.3125 293.941406h-44.914062c-7.601563 0-13.820313 6.21875-13.820313 13.820313v2.0625c0 7.601562 6.21875 13.820312 13.820313 13.820312h44.914062c7.597656 0 13.816406-6.21875 13.816406-13.820312v-2.0625c0-7.601563-6.21875-13.820313-13.816406-13.820313zm0 0" fill="#d9edff"/><path d="m278.3125 305.375h-44.914062c-4.578126 0-8.640626-2.265625-11.160157-5.71875-1.664062 2.28125-2.660156 5.078125-2.660156 8.105469v2.0625c0 7.601562 6.21875 13.820312 13.820313 13.820312h44.914062c7.597656 0 13.816406-6.21875 13.816406-13.820312v-2.0625c0-3.027344-.996094-5.824219-2.660156-8.105469-2.515625 3.453125-6.582031 5.71875-11.15625 5.71875zm0 0" fill="#b4dbff"/><path d="m457.246094 137.761719c9.410156-50.648438-29.527344-97.101563-80.515625-97.28125-7.550781-17.148438-22.011719-30.417969-39.746094-36.445313-3.925781-1.335937-8.183594.765625-9.519531 4.6875-1.332032 3.921875.765625 8.1875 4.691406 9.519532 23.703125 8.058593 36.71875 31.714843 36.71875 54.71875 0 4.144531 3.359375 7.503906 7.503906 7.503906 4.144532 0 7.503906-3.359375 7.503906-7.503906 0-6.214844-.933593-12.175782-2.121093-17.242188 37.277343 2.941406 65.835937 36.328125 61.398437 74.734375-5.554687-2.433594-12.195312-4.800781-18.773437-5.863281-1.964844-10.023438-8.175781-18.90625-17.1875-24.121094-3.585938-2.074219-8.175781-.851562-10.25 2.734375-2.078125 3.589844-.851563 8.179687 2.734375 10.253906 6.390625 3.699219 10.363281 10.578125 10.363281 17.949219s-3.96875 14.25-10.359375 17.949219c-3.585938 2.074219-4.8125 6.667969-2.734375 10.253906 2.082031 3.59375 6.679687 4.804687 10.253906 2.730469 8.539063-4.941406 14.550781-13.1875 16.828125-22.566406 25.574219 5.460937 73.0625 36.6875 73.0625 93.15625 0 33.71875-18.089844 65.105468-47.253906 82.105468-1 .457032-13.359375 8.335938-25.808594 10.996094-2.277344-9.382812-8.289062-17.628906-16.828125-22.570312-3.582031-2.078126-8.175781-.851563-10.253906 2.730468-2.074219 3.585938-.851563 8.179688 2.734375 10.253906 13.800781 7.992188 13.765625 27.929688-.003906 35.898438-3.589844 2.078125-4.8125 6.667969-2.738282 10.253906 2.078126 3.59375 6.671876 4.808594 10.253907 2.734375 9.011719-5.210937 15.222656-14.097656 17.183593-24.117187 6.578126-1.066406 13.214844-3.429688 18.769532-5.859375 4.46875 38.4375-24.105469 71.851562-61.40625 74.789062 1.191406-5.078125 2.132812-11.0625 2.132812-17.304687 0-4.144532-3.359375-7.503906-7.503906-7.503906s-7.503906 3.359374-7.503906 7.503906c0 29.960937-21.308594 57.097656-52.691406 57.53125-29.15625.4375-52.679688-24.359375-52.679688-53.097656v-10.601563h.746094c11.757812 0 21.324218-9.566406 21.324218-21.324219v-6.429687c8.460938-3.007813 14.207032-11.109375 14.207032-20.101563v-1.0625c0-5.09375-1.910156-10.085937-5.097656-13.820312 3.175781-3.726563 5.097656-8.730469 5.097656-13.820313v-1.0625c0-4.210937-1.308594-8.355469-3.488282-11.675781 4.371094-3.929688 6.941407-9.574219 6.941407-15.546875v-12.664063c0-1.9375 1.007812-3.894531 2.882812-5.0625 21.296875-13.3125 36.683594-34.925781 42.214844-59.296874.917969-4.042969-1.613281-8.0625-5.65625-8.980469s-8.058594 1.613281-8.976563 5.65625c-4.652343 20.496093-17.605468 38.679687-35.53125 49.886719-.003906.003906-.003906.003906-.007812.003906-3.832031 2.398437-6.707031 5.84375-8.355469 9.832031-.023437.058594-.050781.109375-.070312.167969-1.871094 4.640625-1.503907 6.878906-1.503907 20.453125 0 3.253906-2.648437 5.902343-5.902343 5.902343-8.195313 0-10.625 0-18.824219 0v-36.402343c13.605469-3.03125 23.808594-15.1875 23.808594-29.691407v-10.828124c3.003906-.980469 5.175781-3.800782 5.175781-7.132813 0-4.144531-3.359375-7.503906-7.503906-7.503906h-58.347657c-4.144531 0-7.503906 3.359375-7.503906 7.503906 0 3.472656 2.359375 6.382813 5.5625 7.242187v10.71875c0 14.503907 10.203125 26.660157 23.804688 29.691407v36.402343c-8.199219 0-10.628906 0-18.824219 0-3.253906 0-5.902344-2.644531-5.902344-5.898437 0-13.695313.058594-13.582031-.167969-15.355469-.796874-6.183594-4.308593-11.691406-9.742187-15.085937-23.574219-14.722657-37.605469-40.070313-37.539063-67.804688.039063-14.710937 4.183594-28.578125 11.34375-40.488281 38.398438-63.839844 133.78125-45.085938 146.734376 26.371094.738281 4.078125 4.648437 6.78125 8.722656 6.046875 4.078125-.742188 6.785156-4.644531 6.046875-8.722657-7.609375-41.957031-42.617188-73.929687-85.664063-77.375v-20.824218c0-23.640625 15.679688-44.667969 38.128906-51.132813 3.980469-1.148437 6.28125-5.308593 5.132813-9.289062s-5.304687-6.277344-9.289063-5.132813c-18.335937 5.28125-33.144531 18.109375-41.507812 34.53125-26.199219-51.425781-98.15625-48.300781-120.699219 2.914063-50.976562.183593-89.925781 46.617187-80.519531 97.28125-73.070312 42.425781-72.929688 147.992187 0 190.335937-9.40625 50.648438 29.53125 97.101563 80.519531 97.285156 22.441407 50.980469 94.4375 54.589844 120.730469 2.847657 26.15625 51.46875 98.175781 48.40625 120.730469-2.847657 50.980469-.183593 89.929687-46.617187 80.519531-97.285156 73.070312-42.421875 72.929688-147.992187-.003906-190.335937zm-217.550782 83.875v-10.457031h32.605469v10.457031c0 8.5-6.917969 15.417969-15.417969 15.417969h-1.765624c-8.503907 0-15.421876-6.917969-15.421876-15.417969zm30.871094 143.714843c0 3.480469-2.832031 6.316407-6.316406 6.316407-5.972656 0-10.53125 0-16.5 0-3.484375 0-6.316406-2.835938-6.316406-6.316407v-5.210937h29.132812zm7.890625-62.617187c3.480469 0 6.316407 2.835937 6.316407 6.316406v1.0625c0 3.484375-2.835938 6.316407-6.316407 6.316407h-44.917969c-3.480468 0-6.3125-2.832032-6.3125-6.316407v-1.0625c0-3.480469 2.832032-6.316406 6.3125-6.316406zm0 28.703125c3.480469 0 6.316407 2.835938 6.316407 6.316406v1.066406c0 3.226563-2.453126 6.316407-6.703126 6.316407h-44.140624c-4.199219 0-6.703126-3.039063-6.703126-6.316407v-1.066406c0-3.480468 2.832032-6.316406 6.316407-6.316406zm-82.640625 118.933594c-31.417968-.433594-52.691406-27.632813-52.691406-57.527344 0-4.144531-3.359375-7.503906-7.503906-7.503906-4.144532 0-7.503906 3.359375-7.503906 7.503906 0 6.238281.941406 12.222656 2.132812 17.304688-37.292969-2.9375-65.875-36.347657-61.40625-74.792969 5.554688 2.429687 12.191406 4.796875 18.769531 5.859375 1.960938 10.023437 8.171875 18.90625 17.183594 24.121094 3.589844 2.078124 8.179687.847656 10.25-2.734376 2.078125-3.589843.851563-8.179687-2.734375-10.253906-13.800781-7.988281-13.773438-27.929687-.003906-35.898437 3.585937-2.078125 4.8125-6.667969 2.734375-10.253907-2.078125-3.585937-6.667969-4.8125-10.253907-2.734374-8.539062 4.945312-14.550781 13.191406-16.828124 22.570312-25.058594-5.351562-73.0625-35.765625-73.0625-93.101562 0-57.84375 48.941406-88.007813 73.0625-93.15625 2.277343 9.378906 8.289062 17.625 16.828124 22.570312 3.585938 2.074219 8.175782.851562 10.253907-2.734375 2.074219-3.585937.851562-8.175781-2.734375-10.253906-13.800782-7.988281-13.765625-27.929688.003906-35.898438 3.585938-2.074219 4.8125-6.664062 2.734375-10.253906-2.074219-3.585937-6.664063-4.8125-10.25-2.734375-9.011719 5.214844-15.222656 14.097656-17.183594 24.121094-6.582031 1.0625-13.21875 3.429687-18.777343 5.863281-4.433594-38.410156 24.121093-71.792969 61.402343-74.734375-1.1875 5.066406-2.121093 11.027344-2.121093 17.242188 0 4.144531 3.355468 7.503906 7.503906 7.503906 4.144531 0 7.5-3.359375 7.5-7.503906 0-13.269532 5.546875-25.6875 5.664062-25.941407.007813-.023437.015625-.042969.023438-.0625.015625-.03125.03125-.058593.042968-.089843 8.199219-18.992188 26.972657-31.382813 47.667969-31.382813 29.117188 0 51.972657 24.878906 51.972657 53.105469v20.796875c-48.242188 3.804687-87.058594 44.472656-87.179688 94.160156-.082031 32.957031 16.589844 63.078125 44.59375 80.566406 1.789062 1.117188 2.855469 3.003907 2.855469 5.046875v12.667969c0 6.015625 2.601562 11.644531 6.941406 15.546875-2.285156 3.480469-3.488281 7.632812-3.488281 11.675781v1.0625c0 5.140625 1.960937 10.148438 5.097656 13.820313-3.085938 3.613281-5.097656 8.652344-5.097656 13.820312v1.0625c0 8.980469 5.742187 17.097656 14.207031 20.101563v6.429687c0 11.757813 9.566406 21.324219 21.324219 21.324219h.746094v10.601563c.003906 28.523437-23.261719 53.488281-52.675782 53.097656zm0 0"/></svg>