<?xml version="1.0"?>
<svg xmlns="http://www.w3.org/2000/svg" viewBox="0 0 64 64" width="512" height="512"><g id="Support-2" data-name="Support"><path d="M44,61H12V51.16a6.005,6.005,0,0,1,3.89-5.62L26,41.75V52l6,5,6-5V41.75l10.11,3.79A6.005,6.005,0,0,1,52,51.16V61Z" style="fill:#5aaae7"/><path d="M50,21v4a2.006,2.006,0,0,1-2,2H46V19h2A2.006,2.006,0,0,1,50,21Z" style="fill:#ff9811"/><path d="M46,19v8a2,2,0,0,1-4,0V19a2.006,2.006,0,0,1,2-2,2.015,2.015,0,0,1,2,2Z" style="fill:#00ccb3"/><circle cx="44" cy="35" r="2" style="fill:#ff9811"/><path d="M42,23v4a9.991,9.991,0,0,1-6,9.16A10,10,0,0,1,22,27V23h1.08a16.02,16.02,0,0,0,10.41-3.85L36,17l.79,1.58C38.14,21.29,38.97,23,42,23Z" style="fill:#ffc477"/><path d="M42,19v4c-3.03,0-3.86-1.71-5.21-4.42L36,17l-2.51,2.15A16.02,16.02,0,0,1,23.08,23H22V17a10,10,0,0,1,20,0Z" style="fill:#8b5e3c"/><polygon points="38 41.75 38 52 32 57 26 52 26 41.75 28 41 32 43 36 41 38 41.75" style="fill:#e6e7e8"/><path d="M36,36.16V41l-4,2-4-2V36.16a9.944,9.944,0,0,0,8,0Z" style="fill:#ffb655"/><path d="M22,23v4a2,2,0,0,1-4,0V19a2.015,2.015,0,0,1,2-2,2.006,2.006,0,0,1,2,2Z" style="fill:#00ccb3"/><path d="M18,19v8H16a2.006,2.006,0,0,1-2-2V21a2.006,2.006,0,0,1,2-2Z" style="fill:#ff9811"/><path d="M48.461,44.6,37,40.307V36.786a11.031,11.031,0,0,0,5.659-7.117A2.958,2.958,0,0,0,44,30a3,3,0,0,0,2.816-2H47v6h-.184a3,3,0,1,0,0,2H47a2,2,0,0,0,2-2V27.816A3,3,0,0,0,51,25V21a3,3,0,0,0-2.042-2.829,16.977,16.977,0,0,0-33.916,0A3,3,0,0,0,13,21v4a3,3,0,0,0,3,3h1.184A3,3,0,0,0,20,30a2.958,2.958,0,0,0,1.341-.331A11.031,11.031,0,0,0,27,36.786v3.521L15.538,44.6A7.038,7.038,0,0,0,11,51.16V61a1,1,0,0,0,1,1H52a1,1,0,0,0,1-1V51.16A7.037,7.037,0,0,0,48.461,44.6ZM44,36a1,1,0,1,1,1-1A1,1,0,0,1,44,36ZM23,19V17a9,9,0,0,1,18,0v4.9c-1.578-.325-2.19-1.512-3.316-3.767L36.9,16.553a1,1,0,0,0-1.546-.312l-2.506,2.148A15.014,15.014,0,0,1,23.081,22H23Zm22,8a1,1,0,0,1-2,0V19a1,1,0,0,1,2,0Zm4-2a1,1,0,0,1-1,1H47V20h1a1,1,0,0,1,1,1ZM32,4A15.007,15.007,0,0,1,46.949,18h-.133a2.954,2.954,0,0,0-3.857-1.8,10.987,10.987,0,0,0-21.918,0A2.954,2.954,0,0,0,17.184,18h-.133A15.007,15.007,0,0,1,32,4ZM15,25V21a1,1,0,0,1,1-1h1v6H16A1,1,0,0,1,15,25Zm5,3a1,1,0,0,1-1-1V19a1,1,0,0,1,2,0v8A1,1,0,0,1,20,28Zm3-1V24h.081a17.014,17.014,0,0,0,11.064-4.093l1.533-1.314.256.511c1.231,2.464,2.236,4.455,5.066,4.828V27a9,9,0,0,1-18,0Zm9,11a10.966,10.966,0,0,0,3-.426v2.808l-3,1.5-3-1.5V37.574A10.966,10.966,0,0,0,32,38Zm-4.057,4.09,3.61,1.8a1,1,0,0,0,.894,0l3.61-1.8.943.353v9.089L32,55.7l-5-4.166V42.443ZM51,60H45V53H43v7H21V53H19v7H13V51.16a5.025,5.025,0,0,1,3.241-4.683L25,43.193V52a1,1,0,0,0,.36.768l6,5a1,1,0,0,0,1.28,0l6-5A1,1,0,0,0,39,52V43.193l8.758,3.283A5.027,5.027,0,0,1,51,51.16Z"/><path d="M37,29H35a3,3,0,0,1-6,0H27a5,5,0,0,0,10,0Z"/></g></svg>
